<?xml version="1.0" standalone="no"?>
<!DOCTYPE svg PUBLIC "-//W3C//DTD SVG 20010904//EN"
 "http://www.w3.org/TR/2001/REC-SVG-20010904/DTD/svg10.dtd">
<svg version="1.0" xmlns="http://www.w3.org/2000/svg"
 width="3000.000000pt" height="3000.000000pt" viewBox="0 0 3000.000000 3000.000000"
 preserveAspectRatio="xMidYMid meet">
<metadata>
Created by potrace 1.11, written by Peter Selinger 2001-2013
</metadata>
<g transform="translate(0.000000,3000.000000) scale(0.100000,-0.100000)"
fill="#000000" stroke="none">
<path d="M20331 21363 c-309 -28 -589 -108 -886 -252 -342 -166 -594 -348
-875 -630 -341 -343 -561 -677 -815 -1236 -42 -93 -89 -195 -102 -225 -150
-329 -401 -929 -718 -1720 -406 -1011 -459 -1135 -571 -1320 -265 -439 -614
-695 -1050 -770 -178 -31 -273 -34 -418 -15 -356 46 -659 195 -977 478 -264
235 -452 478 -764 987 -596 969 -1162 1791 -1503 2182 -124 140 -385 393 -547
528 -341 284 -695 446 -1110 506 -167 25 -514 24 -685 0 -918 -132 -1647 -722
-2160 -1745 -151 -303 -284 -648 -394 -1024 -211 -719 -358 -1580 -383 -2242
-3 -88 -9 -164 -13 -170 -9 -13 -7 -591 3 -601 4 -4 7 -42 7 -85 0 -43 5 -146
10 -231 81 -1190 441 -2700 955 -4003 192 -488 422 -847 635 -992 246 -167
605 -214 872 -113 177 66 348 239 426 430 51 124 64 196 69 385 5 203 -4 285
-62 546 -63 281 -126 501 -350 1224 -291 940 -410 1408 -470 1845 -22 158 -31
537 -16 670 29 251 104 443 220 560 163 164 437 230 632 153 241 -95 469 -343
756 -823 44 -74 321 -556 615 -1070 684 -1195 1006 -1749 1143 -1965 131 -206
321 -441 505 -626 461 -463 997 -751 1610 -863 215 -39 373 -49 670 -43 312 8
407 17 705 67 1099 187 1840 771 2308 1820 115 257 135 316 447 1310 377 1202
577 1772 827 2360 238 560 463 964 717 1285 100 127 327 353 431 431 359 266
709 306 1035 117 88 -51 236 -200 289 -289 116 -198 182 -446 210 -797 14
-161 14 -742 1 -992 -15 -286 -51 -772 -65 -865 -2 -14 -7 -65 -11 -115 -4
-49 -8 -92 -9 -95 -1 -3 -5 -41 -9 -85 -4 -44 -9 -91 -12 -105 -15 -101 -56
-554 -65 -732 -23 -414 29 -701 172 -941 79 -132 225 -266 356 -323 155 -69
386 -87 558 -45 108 26 265 101 356 170 135 103 283 280 376 451 127 234 216
594 293 1175 17 127 33 246 36 265 13 93 55 496 68 670 57 725 50 1578 -19
2390 -14 162 -41 422 -50 480 -2 14 -11 79 -20 145 -123 934 -347 1812 -659
2579 -185 454 -362 769 -596 1060 -519 646 -1181 948 -1929 879z"/>
</g>
</svg>
